<?xml version="1.0" standalone="no"?>
<!DOCTYPE svg PUBLIC "-//W3C//DTD SVG 20010904//EN"
 "http://www.w3.org/TR/2001/REC-SVG-20010904/DTD/svg10.dtd">
<svg version="1.0" xmlns="http://www.w3.org/2000/svg"
 width="512.000000pt" height="512.000000pt" viewBox="0 0 512.000000 512.000000"
 preserveAspectRatio="xMidYMid meet">

<g transform="translate(0.000000,512.000000) scale(0.100000,-0.100000)"
fill="#000000" stroke="none">
<path d="M1260 5109 c-107 -12 -231 -41 -308 -72 -76 -31 -174 -98 -207 -140
-20 -27 -37 -36 -82 -46 -139 -31 -278 -133 -336 -247 -55 -109 -62 -152 -61
-379 1 -135 7 -251 17 -323 27 -187 78 -434 99 -475 29 -58 96 -119 160 -147
52 -22 58 -29 63 -60 23 -141 89 -302 169 -407 54 -71 128 -140 204 -191 l52
-35 0 -118 0 -119 -147 -110 c-97 -73 -155 -110 -172 -110 -46 0 -157 -28
-227 -56 -221 -88 -383 -267 -456 -506 -22 -71 -22 -86 -26 -667 -3 -583 -3
-595 18 -664 19 -61 30 -79 84 -133 53 -52 73 -65 130 -83 68 -21 78 -21 1216
-21 1124 0 1149 0 1213 20 84 26 164 96 204 178 l28 57 3 575 c4 663 2 690
-72 861 -6 14 4 17 81 21 140 7 231 63 293 180 31 57 35 72 38 163 l4 100
-136 238 c-75 130 -136 242 -136 247 0 6 84 10 225 10 l225 0 25 -55 c29 -67
103 -142 170 -175 42 -21 65 -25 137 -25 l88 0 0 -772 0 -773 -85 0 -85 0 0
656 0 656 -30 30 c-26 25 -36 29 -63 24 -18 -3 -42 -17 -54 -32 l-23 -25 0
-658 0 -658 -45 -17 c-66 -26 -143 -100 -176 -171 -16 -33 -29 -70 -29 -81 0
-54 -13 -83 -41 -94 -37 -16 -96 -82 -116 -128 -8 -20 -17 -68 -20 -106 -9
-120 23 -191 101 -227 38 -17 77 -19 581 -19 504 0 543 2 581 19 78 36 110
107 101 226 -3 39 -13 87 -21 108 -21 48 -78 111 -116 127 -23 9 -31 20 -35
49 -14 84 -18 98 -43 144 -33 62 -100 123 -163 149 l-49 21 0 831 0 831 24 35
c12 19 29 52 37 73 l13 37 228 0 c127 0 228 -4 228 -9 0 -5 -60 -112 -132
-237 l-133 -229 0 -110 c0 -96 3 -116 25 -160 31 -64 101 -134 165 -165 47
-24 59 -25 225 -25 168 0 177 1 231 26 73 34 134 96 167 168 23 48 27 69 27
156 l0 100 -137 239 c-76 131 -138 240 -138 242 0 2 49 4 109 4 60 0 117 3
126 6 25 10 47 62 40 95 -13 60 -2 59 -537 59 l-487 0 -31 64 c-34 72 -93 130
-168 167 -39 19 -63 24 -137 24 -80 0 -97 -3 -148 -29 -71 -36 -131 -99 -163
-172 l-24 -54 -490 0 -491 0 -26 -26 c-21 -21 -24 -32 -20 -62 10 -60 24 -66
157 -72 l120 -5 -140 -245 c-101 -176 -140 -254 -140 -277 0 -36 -3 -38 -46
-23 -16 6 -65 16 -109 23 -79 13 -81 14 -217 116 l-138 103 0 127 1 126 60 40
c168 111 305 321 348 532 l17 83 61 30 c67 33 120 86 153 150 26 51 83 345
104 537 18 163 21 378 6 473 -32 197 -195 371 -388 410 -46 10 -63 19 -86 48
-73 87 -238 164 -422 197 -109 20 -359 27 -474 14z m509 -198 c103 -26 212
-82 249 -128 67 -85 74 -89 140 -96 82 -9 139 -34 197 -88 93 -86 122 -193
112 -414 -4 -71 -12 -176 -18 -232 l-12 -102 -28 20 c-15 11 -45 25 -65 32
-35 12 -38 17 -55 84 -50 200 -205 370 -394 433 -100 33 -131 26 -213 -52 -85
-80 -147 -103 -256 -96 -90 6 -141 31 -224 110 l-63 60 -52 -4 c-75 -7 -156
-42 -239 -101 -118 -85 -211 -221 -241 -353 -13 -57 -14 -58 -77 -91 -34 -18
-64 -32 -65 -31 -6 7 -25 204 -31 318 -12 220 19 334 113 420 57 52 149 90
220 90 36 0 51 13 115 93 50 63 202 126 363 150 17 3 122 4 235 2 170 -2 219
-6 289 -24z m-664 -681 c83 -87 198 -130 344 -130 147 0 242 34 337 122 l43
39 58 -27 c71 -34 161 -122 197 -192 14 -28 33 -82 42 -119 25 -110 53 -145
136 -172 52 -17 88 -48 109 -95 23 -51 24 -97 3 -139 -27 -52 -45 -68 -121
-103 -78 -35 -108 -69 -119 -134 -33 -206 -81 -309 -203 -431 -69 -69 -103
-94 -171 -127 -113 -56 -194 -75 -310 -75 -116 0 -196 19 -310 74 -69 34 -101
58 -170 128 -105 105 -163 212 -186 343 -9 46 -17 92 -20 104 -7 37 -48 87
-89 106 -97 46 -111 55 -132 87 -67 100 -21 220 103 263 76 26 102 61 130 170
40 152 103 238 224 303 36 19 68 35 71 35 3 0 18 -14 34 -30z m2749 -1364 c48
-36 66 -74 66 -138 0 -63 -24 -109 -72 -138 -66 -40 -143 -36 -202 11 -77 60
-79 186 -4 256 35 33 67 43 125 40 37 -3 61 -11 87 -31z m-958 -443 c43 -76
86 -153 97 -170 l19 -33 -195 0 -196 0 97 170 c53 93 98 170 98 170 1 0 37
-62 80 -137z m1897 -35 l96 -168 -196 0 -195 0 19 33 c11 17 54 94 97 170 43
76 80 136 81 135 1 -2 45 -78 98 -170z m-3517 106 c39 -9 113 -15 174 -15 61
0 135 6 174 15 37 9 72 16 77 16 6 0 9 -33 7 -82 l-3 -83 -124 -93 c-68 -51
-130 -91 -138 -88 -7 3 -67 46 -133 96 l-120 91 0 79 c0 44 4 80 9 80 6 0 40
-7 77 -16z m-53 -381 l98 -74 -27 -32 c-15 -18 -62 -69 -106 -115 l-79 -83
-97 102 c-117 122 -120 127 -95 144 10 7 56 42 103 78 47 35 90 62 95 59 6 -3
54 -39 108 -79z m777 -76 c0 -5 -46 -58 -102 -117 l-103 -109 -48 47 c-27 26
-75 77 -108 114 l-60 67 106 80 107 80 103 -77 c57 -42 104 -81 105 -85z
m1067 -23 c-8 -46 -47 -97 -90 -118 -54 -25 -274 -23 -326 4 -42 21 -77 69
-87 119 l-6 31 257 0 258 0 -6 -36z m1883 19 c0 -39 -43 -104 -84 -128 -40
-23 -52 -25 -170 -25 -144 0 -180 11 -222 65 -14 18 -28 49 -31 69 l-6 36 257
0 c233 0 256 -1 256 -17z m-3417 -202 c42 -43 77 -83 77 -88 0 -27 -29 -33
-161 -33 -110 0 -139 3 -149 15 -10 13 -9 19 6 38 33 40 138 147 144 147 4 0
41 -35 83 -79z m-455 -204 c19 -4 44 -4 56 -1 14 3 28 -2 40 -15 18 -20 18
-28 -4 -298 -12 -153 -23 -279 -25 -281 -9 -10 -101 182 -150 313 -48 126
-115 386 -115 444 0 9 34 -20 83 -70 61 -64 91 -88 115 -92z m927 61 c-23
-110 -67 -264 -105 -363 -39 -101 -131 -295 -140 -295 -3 0 -17 126 -29 281
-21 267 -22 282 -5 300 13 14 25 18 49 13 51 -9 96 17 171 101 46 51 70 72 72
61 2 -9 -4 -53 -13 -98z m-1209 -297 c104 -329 264 -604 484 -834 119 -124
152 -145 202 -124 43 18 237 221 312 326 170 237 310 556 371 846 24 116 24
116 50 60 12 -27 56 -123 98 -212 l75 -162 -340 -468 c-187 -257 -370 -510
-406 -560 l-66 -93 -126 0 -125 1 -400 551 c-220 303 -401 556 -403 562 -2 11
25 74 160 366 l30 65 24 -105 c13 -58 40 -157 60 -219z m3197 -725 c18 -7 43
-25 55 -39 25 -26 54 -96 45 -109 -6 -10 -670 -10 -676 0 -8 11 19 81 40 104
48 55 62 58 291 58 158 0 221 -4 245 -14z m242 -349 c22 -18 27 -34 32 -85 l6
-62 -518 0 -517 0 4 62 c4 51 9 65 32 85 l27 23 454 0 454 0 26 -23z"/>
</g>
</svg>
